<svg xmlns="http://www.w3.org/2000/svg" version="1.1" xmlns:xlink="http://www.w3.org/1999/xlink" xmlns:svgjs="http://svgjs.com/svgjs" width="1041" height="91" preserveAspectRatio="none" viewBox="0 0 1041 91"><g mask="url(&quot;#SvgjsMask1735&quot;)" fill="none"><rect width="1041" height="91" x="0" y="0" fill="url(#SvgjsRadialGradient1736)"></rect><path d="M480.12 97.42C536.69 97.29 535.06 60.43 703.34 60.34 871.61 60.25 1037.89 29.42 1149.77 29.4" stroke="rgba(0, 0, 0, 0.4)" stroke-width="2"></path><path d="M146.95 103.24C264.13 102.9 377.14 19.3 608.1 19.28 839.06 19.26 953.7 50.2 1069.25 50.22" stroke="rgba(0, 0, 0, 0.4)" stroke-width="2"></path><path d="M527.45 104.83C608.16 104.12 683.03 21.62 839.38 21.59 995.74 21.56 1072.73 60.64 1151.32 60.72" stroke="rgba(0, 0, 0, 0.4)" stroke-width="2"></path><path d="M478.02 104.7C533.81 104.1 530.4 43.46 692.57 43.3 854.74 43.14 1014.3 24.19 1121.68 24.19" stroke="rgba(0, 0, 0, 0.4)" stroke-width="2"></path><path d="M469.77 98.02C553.52 97.9 635.43 49.99 801.32 49.99 967.21 49.99 1049.77 73.63 1132.87 73.65" stroke="rgba(0, 0, 0, 0.4)" stroke-width="2"></path></g><defs><mask id="SvgjsMask1735"><rect width="1041" height="91" fill="#ffffff"></rect></mask><radialGradient cx="0%" cy="0%" r="1044.97" gradientUnits="userSpaceOnUse" id="SvgjsRadialGradient1736"><stop stop-color="rgba(82, 105, 135, 0)" offset="0.54"></stop><stop stop-color="rgba(82, 105, 135, 0)" offset="0.71"></stop><stop stop-color="rgba(82, 105, 135, 0)" offset="0.94"></stop><stop stop-color="rgba(82, 105, 135, 0)" offset="1"></stop></radialGradient></defs></svg>