<svg xmlns="http://www.w3.org/2000/svg" version="1.1" xmlns:xlink="http://www.w3.org/1999/xlink" xmlns:svgjs="http://svgjs.com/svgjs" width="1440" height="560" preserveAspectRatio="none" viewBox="0 0 1440 560"><g mask="url(&quot;#SvgjsMask1693&quot;)" fill="none"><rect width="1440" height="560" x="0" y="0" fill="url(#SvgjsRadialGradient1694)"></rect><path d="M536 636.37C698.19 616.35 797.14 249.84 1062.93 249.53 1328.73 249.22 1444.57 489.94 1589.87 495.93" stroke="rgba(0, 0, 0, 0.4)" stroke-width="2"></path><path d="M551.52 641.07C668.23 620.6 608.37 346.79 910.08 331.09 1211.8 315.39 1438.12 93.48 1627.21 90.29" stroke="rgba(0, 0, 0, 0.4)" stroke-width="2"></path><path d="M958.25 616.21C1108.63 552.53 1133.03 89.39 1336.81 83.85 1540.59 78.31 1605.03 304.71 1715.37 313.45" stroke="rgba(0, 0, 0, 0.4)" stroke-width="2"></path><path d="M662.44 632.7C749.99 624.25 709.01 451.94 956.2 439.07 1203.39 426.2 1383.44 187.05 1543.72 181.47" stroke="rgba(0, 0, 0, 0.4)" stroke-width="2"></path><path d="M389.77 626.87C518.65 611.96 593.23 327.56 812.23 325.48 1031.23 323.4 1023.46 395.48 1234.7 395.48 1445.93 395.48 1550.1 325.72 1657.16 325.48" stroke="rgba(0, 0, 0, 0.4)" stroke-width="2"></path></g><defs><mask id="SvgjsMask1693"><rect width="1440" height="560" fill="#ffffff"></rect></mask><radialGradient cx="0%" cy="0%" r="1545.06" gradientUnits="userSpaceOnUse" id="SvgjsRadialGradient1694"><stop stop-color="rgba(82, 105, 135, 0)" offset="0.54"></stop><stop stop-color="rgba(82, 105, 135, 0)" offset="0.71"></stop><stop stop-color="rgba(82, 105, 135, 0)" offset="0.94"></stop><stop stop-color="rgba(82, 105, 135, 0)" offset="1"></stop></radialGradient></defs></svg>