<svg xmlns="http://www.w3.org/2000/svg" version="1.1" xmlns:xlink="http://www.w3.org/1999/xlink" xmlns:svgjs="http://svgjs.com/svgjs" width="1440" height="90" preserveAspectRatio="none" viewBox="0 0 1440 90"><g mask="url(&quot;#SvgjsMask1692&quot;)" fill="none"><path d="M23.61 -18.77L56.52 0.23L56.52 38.23L23.61 57.23L-9.3 38.23L-9.3 0.23zM221.07 95.23L253.98 114.23L253.98 152.23L221.07 171.23L188.16 152.23L188.16 114.23zM286.89 -18.77L319.8 0.23L319.8 38.23L286.89 57.23L253.98 38.23L253.98 0.23zM286.89 95.23L319.8 114.23L319.8 152.23L286.89 171.23L253.98 152.23L253.98 114.23zM385.62 38.23L418.53 57.23L418.53 95.23L385.62 114.23L352.71 95.23L352.71 57.23zM451.44 38.23L484.35 57.23L484.35 95.23L451.44 114.23L418.53 95.23L418.53 57.23zM484.35 -18.77L517.26 0.23L517.26 38.23L484.35 57.23L451.44 38.23L451.44 0.23zM517.26 38.23L550.17 57.23L550.17 95.23L517.26 114.23L484.35 95.23L484.35 57.23zM550.17 95.23L583.08 114.23L583.08 152.23L550.17 171.23L517.26 152.23L517.26 114.23zM615.99 95.23L648.9 114.23L648.9 152.23L615.99 171.23L583.08 152.23L583.08 114.23zM714.72 38.23L747.63 57.23L747.63 95.23L714.72 114.23L681.81 95.23L681.81 57.23zM681.81 95.23L714.72 114.23L714.72 152.23L681.81 171.23L648.9 152.23L648.9 114.23zM747.63 95.23L780.54 114.23L780.54 152.23L747.63 171.23L714.72 152.23L714.72 114.23zM813.45 -18.77L846.36 0.23L846.36 38.23L813.45 57.23L780.54 38.23L780.54 0.23zM846.36 38.23L879.27 57.23L879.27 95.23L846.36 114.23L813.45 95.23L813.45 57.23zM813.45 95.23L846.36 114.23L846.36 152.23L813.45 171.23L780.54 152.23L780.54 114.23zM912.18 38.23L945.09 57.23L945.09 95.23L912.18 114.23L879.27 95.23L879.27 57.23zM978 38.23L1010.91 57.23L1010.91 95.23L978 114.23L945.09 95.23L945.09 57.23zM1010.91 95.23L1043.82 114.23L1043.82 152.23L1010.91 171.23L978 152.23L978 114.23zM1076.73 -18.77L1109.64 0.23L1109.64 38.23L1076.73 57.23L1043.82 38.23L1043.82 0.23zM1076.73 95.23L1109.64 114.23L1109.64 152.23L1076.73 171.23L1043.82 152.23L1043.82 114.23zM1241.28 38.23L1274.19 57.23L1274.19 95.23L1241.28 114.23L1208.37 95.23L1208.37 57.23zM1307.1 38.23L1340.01 57.23L1340.01 95.23L1307.1 114.23L1274.19 95.23L1274.19 57.23zM1405.83 -18.77L1438.74 0.23L1438.74 38.23L1405.83 57.23L1372.92 38.23L1372.92 0.23zM1405.83 95.23L1438.74 114.23L1438.74 152.23L1405.83 171.23L1372.92 152.23L1372.92 114.23z" stroke="url(#SvgjsLinearGradient1693)" stroke-width="2"></path><path d="M19.81 -18.77 a3.8 3.8 0 1 0 7.6 0 a3.8 3.8 0 1 0 -7.6 0zM52.72 0.23 a3.8 3.8 0 1 0 7.6 0 a3.8 3.8 0 1 0 -7.6 0zM52.72 38.23 a3.8 3.8 0 1 0 7.6 0 a3.8 3.8 0 1 0 -7.6 0zM19.81 57.23 a3.8 3.8 0 1 0 7.6 0 a3.8 3.8 0 1 0 -7.6 0zM-13.1 38.23 a3.8 3.8 0 1 0 7.6 0 a3.8 3.8 0 1 0 -7.6 0zM-13.1 0.23 a3.8 3.8 0 1 0 7.6 0 a3.8 3.8 0 1 0 -7.6 0zM217.27 95.23 a3.8 3.8 0 1 0 7.6 0 a3.8 3.8 0 1 0 -7.6 0zM250.18 114.23 a3.8 3.8 0 1 0 7.6 0 a3.8 3.8 0 1 0 -7.6 0zM250.18 152.23 a3.8 3.8 0 1 0 7.6 0 a3.8 3.8 0 1 0 -7.6 0zM217.27 171.23 a3.8 3.8 0 1 0 7.6 0 a3.8 3.8 0 1 0 -7.6 0zM184.36 152.23 a3.8 3.8 0 1 0 7.6 0 a3.8 3.8 0 1 0 -7.6 0zM184.36 114.23 a3.8 3.8 0 1 0 7.6 0 a3.8 3.8 0 1 0 -7.6 0zM283.09 -18.77 a3.8 3.8 0 1 0 7.6 0 a3.8 3.8 0 1 0 -7.6 0zM316 0.23 a3.8 3.8 0 1 0 7.6 0 a3.8 3.8 0 1 0 -7.6 0zM316 38.23 a3.8 3.8 0 1 0 7.6 0 a3.8 3.8 0 1 0 -7.6 0zM283.09 57.23 a3.8 3.8 0 1 0 7.6 0 a3.8 3.8 0 1 0 -7.6 0zM250.18 38.23 a3.8 3.8 0 1 0 7.6 0 a3.8 3.8 0 1 0 -7.6 0zM250.18 0.23 a3.8 3.8 0 1 0 7.6 0 a3.8 3.8 0 1 0 -7.6 0zM283.09 95.23 a3.8 3.8 0 1 0 7.6 0 a3.8 3.8 0 1 0 -7.6 0zM316 114.23 a3.8 3.8 0 1 0 7.6 0 a3.8 3.8 0 1 0 -7.6 0zM316 152.23 a3.8 3.8 0 1 0 7.6 0 a3.8 3.8 0 1 0 -7.6 0zM283.09 171.23 a3.8 3.8 0 1 0 7.6 0 a3.8 3.8 0 1 0 -7.6 0zM381.82 38.23 a3.8 3.8 0 1 0 7.6 0 a3.8 3.8 0 1 0 -7.6 0zM414.73 57.23 a3.8 3.8 0 1 0 7.6 0 a3.8 3.8 0 1 0 -7.6 0zM414.73 95.23 a3.8 3.8 0 1 0 7.6 0 a3.8 3.8 0 1 0 -7.6 0zM381.82 114.23 a3.8 3.8 0 1 0 7.6 0 a3.8 3.8 0 1 0 -7.6 0zM348.91 95.23 a3.8 3.8 0 1 0 7.6 0 a3.8 3.8 0 1 0 -7.6 0zM348.91 57.23 a3.8 3.8 0 1 0 7.6 0 a3.8 3.8 0 1 0 -7.6 0zM447.64 38.23 a3.8 3.8 0 1 0 7.6 0 a3.8 3.8 0 1 0 -7.6 0zM480.55 57.23 a3.8 3.8 0 1 0 7.6 0 a3.8 3.8 0 1 0 -7.6 0zM480.55 95.23 a3.8 3.8 0 1 0 7.6 0 a3.8 3.8 0 1 0 -7.6 0zM447.64 114.23 a3.8 3.8 0 1 0 7.6 0 a3.8 3.8 0 1 0 -7.6 0zM480.55 -18.77 a3.8 3.8 0 1 0 7.6 0 a3.8 3.8 0 1 0 -7.6 0zM513.46 0.23 a3.8 3.8 0 1 0 7.6 0 a3.8 3.8 0 1 0 -7.6 0zM513.46 38.23 a3.8 3.8 0 1 0 7.6 0 a3.8 3.8 0 1 0 -7.6 0zM447.64 0.23 a3.8 3.8 0 1 0 7.6 0 a3.8 3.8 0 1 0 -7.6 0zM546.37 57.23 a3.8 3.8 0 1 0 7.6 0 a3.8 3.8 0 1 0 -7.6 0zM546.37 95.23 a3.8 3.8 0 1 0 7.6 0 a3.8 3.8 0 1 0 -7.6 0zM513.46 114.23 a3.8 3.8 0 1 0 7.6 0 a3.8 3.8 0 1 0 -7.6 0zM579.28 114.23 a3.8 3.8 0 1 0 7.6 0 a3.8 3.8 0 1 0 -7.6 0zM579.28 152.23 a3.8 3.8 0 1 0 7.6 0 a3.8 3.8 0 1 0 -7.6 0zM546.37 171.23 a3.8 3.8 0 1 0 7.6 0 a3.8 3.8 0 1 0 -7.6 0zM513.46 152.23 a3.8 3.8 0 1 0 7.6 0 a3.8 3.8 0 1 0 -7.6 0zM612.19 95.23 a3.8 3.8 0 1 0 7.6 0 a3.8 3.8 0 1 0 -7.6 0zM645.1 114.23 a3.8 3.8 0 1 0 7.6 0 a3.8 3.8 0 1 0 -7.6 0zM645.1 152.23 a3.8 3.8 0 1 0 7.6 0 a3.8 3.8 0 1 0 -7.6 0zM612.19 171.23 a3.8 3.8 0 1 0 7.6 0 a3.8 3.8 0 1 0 -7.6 0zM710.92 38.23 a3.8 3.8 0 1 0 7.6 0 a3.8 3.8 0 1 0 -7.6 0zM743.83 57.23 a3.8 3.8 0 1 0 7.6 0 a3.8 3.8 0 1 0 -7.6 0zM743.83 95.23 a3.8 3.8 0 1 0 7.6 0 a3.8 3.8 0 1 0 -7.6 0zM710.92 114.23 a3.8 3.8 0 1 0 7.6 0 a3.8 3.8 0 1 0 -7.6 0zM678.01 95.23 a3.8 3.8 0 1 0 7.6 0 a3.8 3.8 0 1 0 -7.6 0zM678.01 57.23 a3.8 3.8 0 1 0 7.6 0 a3.8 3.8 0 1 0 -7.6 0zM710.92 152.23 a3.8 3.8 0 1 0 7.6 0 a3.8 3.8 0 1 0 -7.6 0zM678.01 171.23 a3.8 3.8 0 1 0 7.6 0 a3.8 3.8 0 1 0 -7.6 0zM776.74 114.23 a3.8 3.8 0 1 0 7.6 0 a3.8 3.8 0 1 0 -7.6 0zM776.74 152.23 a3.8 3.8 0 1 0 7.6 0 a3.8 3.8 0 1 0 -7.6 0zM743.83 171.23 a3.8 3.8 0 1 0 7.6 0 a3.8 3.8 0 1 0 -7.6 0zM809.65 -18.77 a3.8 3.8 0 1 0 7.6 0 a3.8 3.8 0 1 0 -7.6 0zM842.56 0.23 a3.8 3.8 0 1 0 7.6 0 a3.8 3.8 0 1 0 -7.6 0zM842.56 38.23 a3.8 3.8 0 1 0 7.6 0 a3.8 3.8 0 1 0 -7.6 0zM809.65 57.23 a3.8 3.8 0 1 0 7.6 0 a3.8 3.8 0 1 0 -7.6 0zM776.74 38.23 a3.8 3.8 0 1 0 7.6 0 a3.8 3.8 0 1 0 -7.6 0zM776.74 0.23 a3.8 3.8 0 1 0 7.6 0 a3.8 3.8 0 1 0 -7.6 0zM875.47 57.23 a3.8 3.8 0 1 0 7.6 0 a3.8 3.8 0 1 0 -7.6 0zM875.47 95.23 a3.8 3.8 0 1 0 7.6 0 a3.8 3.8 0 1 0 -7.6 0zM842.56 114.23 a3.8 3.8 0 1 0 7.6 0 a3.8 3.8 0 1 0 -7.6 0zM809.65 95.23 a3.8 3.8 0 1 0 7.6 0 a3.8 3.8 0 1 0 -7.6 0zM842.56 152.23 a3.8 3.8 0 1 0 7.6 0 a3.8 3.8 0 1 0 -7.6 0zM809.65 171.23 a3.8 3.8 0 1 0 7.6 0 a3.8 3.8 0 1 0 -7.6 0zM908.38 38.23 a3.8 3.8 0 1 0 7.6 0 a3.8 3.8 0 1 0 -7.6 0zM941.29 57.23 a3.8 3.8 0 1 0 7.6 0 a3.8 3.8 0 1 0 -7.6 0zM941.29 95.23 a3.8 3.8 0 1 0 7.6 0 a3.8 3.8 0 1 0 -7.6 0zM908.38 114.23 a3.8 3.8 0 1 0 7.6 0 a3.8 3.8 0 1 0 -7.6 0zM974.2 38.23 a3.8 3.8 0 1 0 7.6 0 a3.8 3.8 0 1 0 -7.6 0zM1007.11 57.23 a3.8 3.8 0 1 0 7.6 0 a3.8 3.8 0 1 0 -7.6 0zM1007.11 95.23 a3.8 3.8 0 1 0 7.6 0 a3.8 3.8 0 1 0 -7.6 0zM974.2 114.23 a3.8 3.8 0 1 0 7.6 0 a3.8 3.8 0 1 0 -7.6 0zM1040.02 114.23 a3.8 3.8 0 1 0 7.6 0 a3.8 3.8 0 1 0 -7.6 0zM1040.02 152.23 a3.8 3.8 0 1 0 7.6 0 a3.8 3.8 0 1 0 -7.6 0zM1007.11 171.23 a3.8 3.8 0 1 0 7.6 0 a3.8 3.8 0 1 0 -7.6 0zM974.2 152.23 a3.8 3.8 0 1 0 7.6 0 a3.8 3.8 0 1 0 -7.6 0zM1072.93 -18.77 a3.8 3.8 0 1 0 7.6 0 a3.8 3.8 0 1 0 -7.6 0zM1105.84 0.23 a3.8 3.8 0 1 0 7.6 0 a3.8 3.8 0 1 0 -7.6 0zM1105.84 38.23 a3.8 3.8 0 1 0 7.6 0 a3.8 3.8 0 1 0 -7.6 0zM1072.93 57.23 a3.8 3.8 0 1 0 7.6 0 a3.8 3.8 0 1 0 -7.6 0zM1040.02 38.23 a3.8 3.8 0 1 0 7.6 0 a3.8 3.8 0 1 0 -7.6 0zM1040.02 0.23 a3.8 3.8 0 1 0 7.6 0 a3.8 3.8 0 1 0 -7.6 0zM1072.93 95.23 a3.8 3.8 0 1 0 7.6 0 a3.8 3.8 0 1 0 -7.6 0zM1105.84 114.23 a3.8 3.8 0 1 0 7.6 0 a3.8 3.8 0 1 0 -7.6 0zM1105.84 152.23 a3.8 3.8 0 1 0 7.6 0 a3.8 3.8 0 1 0 -7.6 0zM1072.93 171.23 a3.8 3.8 0 1 0 7.6 0 a3.8 3.8 0 1 0 -7.6 0zM1237.48 38.23 a3.8 3.8 0 1 0 7.6 0 a3.8 3.8 0 1 0 -7.6 0zM1270.39 57.23 a3.8 3.8 0 1 0 7.6 0 a3.8 3.8 0 1 0 -7.6 0zM1270.39 95.23 a3.8 3.8 0 1 0 7.6 0 a3.8 3.8 0 1 0 -7.6 0zM1237.48 114.23 a3.8 3.8 0 1 0 7.6 0 a3.8 3.8 0 1 0 -7.6 0zM1204.57 95.23 a3.8 3.8 0 1 0 7.6 0 a3.8 3.8 0 1 0 -7.6 0zM1204.57 57.23 a3.8 3.8 0 1 0 7.6 0 a3.8 3.8 0 1 0 -7.6 0zM1303.3 38.23 a3.8 3.8 0 1 0 7.6 0 a3.8 3.8 0 1 0 -7.6 0zM1336.21 57.23 a3.8 3.8 0 1 0 7.6 0 a3.8 3.8 0 1 0 -7.6 0zM1336.21 95.23 a3.8 3.8 0 1 0 7.6 0 a3.8 3.8 0 1 0 -7.6 0zM1303.3 114.23 a3.8 3.8 0 1 0 7.6 0 a3.8 3.8 0 1 0 -7.6 0zM1402.03 -18.77 a3.8 3.8 0 1 0 7.6 0 a3.8 3.8 0 1 0 -7.6 0zM1434.94 0.23 a3.8 3.8 0 1 0 7.6 0 a3.8 3.8 0 1 0 -7.6 0zM1434.94 38.23 a3.8 3.8 0 1 0 7.6 0 a3.8 3.8 0 1 0 -7.6 0zM1402.03 57.23 a3.8 3.8 0 1 0 7.6 0 a3.8 3.8 0 1 0 -7.6 0zM1369.12 38.23 a3.8 3.8 0 1 0 7.6 0 a3.8 3.8 0 1 0 -7.6 0zM1369.12 0.23 a3.8 3.8 0 1 0 7.6 0 a3.8 3.8 0 1 0 -7.6 0zM1402.03 95.23 a3.8 3.8 0 1 0 7.6 0 a3.8 3.8 0 1 0 -7.6 0zM1434.94 114.23 a3.8 3.8 0 1 0 7.6 0 a3.8 3.8 0 1 0 -7.6 0zM1434.94 152.23 a3.8 3.8 0 1 0 7.6 0 a3.8 3.8 0 1 0 -7.6 0zM1402.03 171.23 a3.8 3.8 0 1 0 7.6 0 a3.8 3.8 0 1 0 -7.6 0zM1369.12 152.23 a3.8 3.8 0 1 0 7.6 0 a3.8 3.8 0 1 0 -7.6 0zM1369.12 114.23 a3.8 3.8 0 1 0 7.6 0 a3.8 3.8 0 1 0 -7.6 0z" fill="url(#SvgjsLinearGradient1693)"></path><path d="M34.21 -126.57L160.65 -53.57L160.65 92.43L34.21 165.43L-92.23 92.43L-92.23 -53.57zM287.1 -126.57L413.54 -53.57L413.54 92.43L287.1 165.43L160.65 92.43L160.65 -53.57zM792.87 -126.57L919.31 -53.57L919.31 92.43L792.87 165.43L666.43 92.43L666.43 -53.57zM1045.76 -126.57L1172.2 -53.57L1172.2 92.43L1045.76 165.43L919.31 92.43L919.31 -53.57zM1298.64 -126.57L1425.09 -53.57L1425.09 92.43L1298.64 165.43L1172.2 92.43L1172.2 -53.57z" stroke="rgba(0, 0, 0, 0)" stroke-width="2"></path></g><defs><mask id="SvgjsMask1692"><rect width="1440" height="90" fill="#ffffff"></rect></mask><linearGradient x1="337.53600000000006" y1="427.5" x2="1102.4640000000002" y2="-337.5" gradientUnits="userSpaceOnUse" id="SvgjsLinearGradient1693"><stop stop-color="rgba(158, 0, 129, 1)" offset="0.02"></stop><stop stop-color="rgba(135, 150, 165, 0.72)" offset="0.71"></stop><stop stop-color="rgba(0, 0, 0, 0.1)" offset="0.83"></stop><stop stop-color="rgba(1, 0, 1, 0.75)" offset="1"></stop></linearGradient></defs></svg>