<svg xmlns="http://www.w3.org/2000/svg" version="1.1" xmlns:xlink="http://www.w3.org/1999/xlink" xmlns:svgjs="http://svgjs.com/svgjs" width="1440" height="90" preserveAspectRatio="none" viewBox="0 0 1440 90"><g mask="url(&quot;#SvgjsMask1354&quot;)" fill="none"><path d="M4.98 -38.11L39.62 -18.11L39.62 21.89L4.98 41.89L-29.66 21.89L-29.66 -18.11zM143.55 -38.11L178.19 -18.11L178.19 21.89L143.55 41.89L108.91 21.89L108.91 -18.11zM212.83 -38.11L247.47 -18.11L247.47 21.89L212.83 41.89L178.19 21.89L178.19 -18.11zM282.12 -38.11L316.76 -18.11L316.76 21.89L282.12 41.89L247.47 21.89L247.47 -18.11zM316.76 21.89L351.4 41.89L351.4 81.89L316.76 101.89L282.12 81.89L282.12 41.89zM628.54 -38.11L663.18 -18.11L663.18 21.89L628.54 41.89L593.89 21.89L593.89 -18.11zM940.31 21.89L974.96 41.89L974.96 81.89L940.31 101.89L905.67 81.89L905.67 41.89zM974.96 -38.11L1009.6 -18.11L1009.6 21.89L974.96 41.89L940.31 21.89L940.31 -18.11zM1078.88 21.89L1113.52 41.89L1113.52 81.89L1078.88 101.89L1044.24 81.89L1044.24 41.89zM1113.52 -38.11L1148.17 -18.11L1148.17 21.89L1113.52 41.89L1078.88 21.89L1078.88 -18.11zM1182.81 -38.11L1217.45 -18.11L1217.45 21.89L1182.81 41.89L1148.17 21.89L1148.17 -18.11zM1286.73 21.89L1321.38 41.89L1321.38 81.89L1286.73 101.89L1252.09 81.89L1252.09 41.89zM1321.38 -38.11L1356.02 -18.11L1356.02 21.89L1321.38 41.89L1286.73 21.89L1286.73 -18.11zM1390.66 -38.11L1425.3 -18.11L1425.3 21.89L1390.66 41.89L1356.02 21.89L1356.02 -18.11z" stroke="url(#SvgjsLinearGradient1355)" stroke-width="2"></path><path d="M0.98 -38.11 a4 4 0 1 0 8 0 a4 4 0 1 0 -8 0zM35.62 -18.11 a4 4 0 1 0 8 0 a4 4 0 1 0 -8 0zM35.62 21.89 a4 4 0 1 0 8 0 a4 4 0 1 0 -8 0zM0.98 41.89 a4 4 0 1 0 8 0 a4 4 0 1 0 -8 0zM-33.66 21.89 a4 4 0 1 0 8 0 a4 4 0 1 0 -8 0zM-33.66 -18.11 a4 4 0 1 0 8 0 a4 4 0 1 0 -8 0zM139.55 -38.11 a4 4 0 1 0 8 0 a4 4 0 1 0 -8 0zM174.19 -18.11 a4 4 0 1 0 8 0 a4 4 0 1 0 -8 0zM174.19 21.89 a4 4 0 1 0 8 0 a4 4 0 1 0 -8 0zM139.55 41.89 a4 4 0 1 0 8 0 a4 4 0 1 0 -8 0zM104.91 21.89 a4 4 0 1 0 8 0 a4 4 0 1 0 -8 0zM104.91 -18.11 a4 4 0 1 0 8 0 a4 4 0 1 0 -8 0zM208.83 -38.11 a4 4 0 1 0 8 0 a4 4 0 1 0 -8 0zM243.47 -18.11 a4 4 0 1 0 8 0 a4 4 0 1 0 -8 0zM243.47 21.89 a4 4 0 1 0 8 0 a4 4 0 1 0 -8 0zM208.83 41.89 a4 4 0 1 0 8 0 a4 4 0 1 0 -8 0zM278.12 -38.11 a4 4 0 1 0 8 0 a4 4 0 1 0 -8 0zM312.76 -18.11 a4 4 0 1 0 8 0 a4 4 0 1 0 -8 0zM312.76 21.89 a4 4 0 1 0 8 0 a4 4 0 1 0 -8 0zM278.12 41.89 a4 4 0 1 0 8 0 a4 4 0 1 0 -8 0zM347.4 41.89 a4 4 0 1 0 8 0 a4 4 0 1 0 -8 0zM347.4 81.89 a4 4 0 1 0 8 0 a4 4 0 1 0 -8 0zM312.76 101.89 a4 4 0 1 0 8 0 a4 4 0 1 0 -8 0zM278.12 81.89 a4 4 0 1 0 8 0 a4 4 0 1 0 -8 0zM624.54 -38.11 a4 4 0 1 0 8 0 a4 4 0 1 0 -8 0zM659.18 -18.11 a4 4 0 1 0 8 0 a4 4 0 1 0 -8 0zM659.18 21.89 a4 4 0 1 0 8 0 a4 4 0 1 0 -8 0zM624.54 41.89 a4 4 0 1 0 8 0 a4 4 0 1 0 -8 0zM589.89 21.89 a4 4 0 1 0 8 0 a4 4 0 1 0 -8 0zM589.89 -18.11 a4 4 0 1 0 8 0 a4 4 0 1 0 -8 0zM936.31 21.89 a4 4 0 1 0 8 0 a4 4 0 1 0 -8 0zM970.96 41.89 a4 4 0 1 0 8 0 a4 4 0 1 0 -8 0zM970.96 81.89 a4 4 0 1 0 8 0 a4 4 0 1 0 -8 0zM936.31 101.89 a4 4 0 1 0 8 0 a4 4 0 1 0 -8 0zM901.67 81.89 a4 4 0 1 0 8 0 a4 4 0 1 0 -8 0zM901.67 41.89 a4 4 0 1 0 8 0 a4 4 0 1 0 -8 0zM970.96 -38.11 a4 4 0 1 0 8 0 a4 4 0 1 0 -8 0zM1005.6 -18.11 a4 4 0 1 0 8 0 a4 4 0 1 0 -8 0zM1005.6 21.89 a4 4 0 1 0 8 0 a4 4 0 1 0 -8 0zM936.31 -18.11 a4 4 0 1 0 8 0 a4 4 0 1 0 -8 0zM1074.88 21.89 a4 4 0 1 0 8 0 a4 4 0 1 0 -8 0zM1109.52 41.89 a4 4 0 1 0 8 0 a4 4 0 1 0 -8 0zM1109.52 81.89 a4 4 0 1 0 8 0 a4 4 0 1 0 -8 0zM1074.88 101.89 a4 4 0 1 0 8 0 a4 4 0 1 0 -8 0zM1040.24 81.89 a4 4 0 1 0 8 0 a4 4 0 1 0 -8 0zM1040.24 41.89 a4 4 0 1 0 8 0 a4 4 0 1 0 -8 0zM1109.52 -38.11 a4 4 0 1 0 8 0 a4 4 0 1 0 -8 0zM1144.17 -18.11 a4 4 0 1 0 8 0 a4 4 0 1 0 -8 0zM1144.17 21.89 a4 4 0 1 0 8 0 a4 4 0 1 0 -8 0zM1074.88 -18.11 a4 4 0 1 0 8 0 a4 4 0 1 0 -8 0zM1178.81 -38.11 a4 4 0 1 0 8 0 a4 4 0 1 0 -8 0zM1213.45 -18.11 a4 4 0 1 0 8 0 a4 4 0 1 0 -8 0zM1213.45 21.89 a4 4 0 1 0 8 0 a4 4 0 1 0 -8 0zM1178.81 41.89 a4 4 0 1 0 8 0 a4 4 0 1 0 -8 0zM1282.73 21.89 a4 4 0 1 0 8 0 a4 4 0 1 0 -8 0zM1317.38 41.89 a4 4 0 1 0 8 0 a4 4 0 1 0 -8 0zM1317.38 81.89 a4 4 0 1 0 8 0 a4 4 0 1 0 -8 0zM1282.73 101.89 a4 4 0 1 0 8 0 a4 4 0 1 0 -8 0zM1248.09 81.89 a4 4 0 1 0 8 0 a4 4 0 1 0 -8 0zM1248.09 41.89 a4 4 0 1 0 8 0 a4 4 0 1 0 -8 0zM1317.38 -38.11 a4 4 0 1 0 8 0 a4 4 0 1 0 -8 0zM1352.02 -18.11 a4 4 0 1 0 8 0 a4 4 0 1 0 -8 0zM1352.02 21.89 a4 4 0 1 0 8 0 a4 4 0 1 0 -8 0zM1282.73 -18.11 a4 4 0 1 0 8 0 a4 4 0 1 0 -8 0zM1386.66 -38.11 a4 4 0 1 0 8 0 a4 4 0 1 0 -8 0zM1421.3 -18.11 a4 4 0 1 0 8 0 a4 4 0 1 0 -8 0zM1421.3 21.89 a4 4 0 1 0 8 0 a4 4 0 1 0 -8 0zM1386.66 41.89 a4 4 0 1 0 8 0 a4 4 0 1 0 -8 0z" fill="url(#SvgjsLinearGradient1355)"></path><path d="M104.81 -140.27L231.25 -67.27L231.25 78.73L104.81 151.73L-21.63 78.73L-21.63 -67.27zM1369.24 -140.27L1495.69 -67.27L1495.69 78.73L1369.24 151.73L1242.8 78.73L1242.8 -67.27z" stroke="rgba(0, 0, 0, 0)" stroke-width="2"></path></g><defs><mask id="SvgjsMask1354"><rect width="1440" height="90" fill="#ffffff"></rect></mask><linearGradient x1="337.53600000000006" y1="427.5" x2="1102.4640000000002" y2="-337.5" gradientUnits="userSpaceOnUse" id="SvgjsLinearGradient1355"><stop stop-color="rgba(158, 0, 129, 1)" offset="0.02"></stop><stop stop-color="rgba(135, 150, 165, 0.72)" offset="0.71"></stop><stop stop-color="rgba(0, 0, 0, 0.1)" offset="0.83"></stop><stop stop-color="rgba(1, 0, 1, 0.75)" offset="1"></stop></linearGradient></defs></svg>